<svg xmlns="http://www.w3.org/2000/svg" width="1078.5" height="1080" viewBox="0 0 1078.5 1080">
  <g id="logout" transform="translate(-60.5 1140)">
    <path id="Caminho_1" data-name="Caminho 1" d="M168-1139.5c-.8.2-4.9.9-9,1.5-16,2.6-36.1,11.1-49.3,20.8A122.884,122.884,0,0,0,62.4-1044c-1.8,8.2-1.9,22.8-1.9,444s.1,435.8,1.9,444c9.2,42,39.3,76.2,78.8,89.4,19.3,6.5-4.1,6,270.1,6.3L660-60V-180H180v-840H660v-120l-245.2.1C279.9-1139.8,168.8-1139.6,168-1139.5Z" fill="#f2f4f7"/>
    <path id="Caminho_2" data-name="Caminho 2" d="M780-780v120H300v120H780v240L959.5-449.6C1058.2-531.9,1139-599.5,1139-600s-80.8-68.1-179.5-150.4L780-900Z" fill="#f2f4f7"/>
  </g>
</svg>
