<svg xmlns="http://www.w3.org/2000/svg" width="996.808" height="202.51" viewBox="0 0 996.808 202.51">
  <g id="duotone-_1_" transform="translate(0 203)">
    <path id="Caminho_1" data-name="Caminho 1" d="M252-102V-1h37V-15.4c0-19.5-.8-23.1-7.4-32.4-11.7-16.7-15.6-28-16.3-46.7-.8-20.4,3.1-33.4,15.3-51.6,7.2-10.8,7.2-11,7.9-19.1.3-4.6.5-14.8.3-22.8l-.3-14.5-18.2-.3L252-203Z" fill="#f2f4f7"/>
    <path id="Caminho_2" data-name="Caminho 2" d="M355.5-177.4c-19.1,2.8-34.2,9.6-46,20.6-18.3,17-26.5,38.1-25.2,64.3a129.288,129.288,0,0,0,2.6,18.8c5.4,20.8,21.3,39.3,42.9,49.9,8,3.9,9.1,4.1,21.7,5a189.425,189.425,0,0,0,26.1,0c12.2-1,13.1-1.2,21.8-5.5,9.4-4.7,19.7-11.9,25.4-18l3.4-3.5L417.4-58c-5.9-6.7-11.9-12.7-13.3-13.5-3.2-1.6-5.2-.9-13,4.5-15.2,10.3-30.1,11.6-43.2,3.7-24-14.4-22.1-58.4,3.1-70,3.5-1.6,6.6-2.1,14-2.1,8.4-.1,10.1.2,15,2.6a84.173,84.173,0,0,1,11.9,7.9l6.3,5.2,15.4-15.4c8.5-8.5,15.4-15.6,15.4-15.9s-3.9-3.5-8.6-7.2A87.112,87.112,0,0,0,387-175C378.7-177,361.5-178.3,355.5-177.4Z" fill="#f2f4f7"/>
    <path id="Caminho_3" data-name="Caminho 3" d="M190-82V-1h35V-163H190Z" fill="#f2f4f7"/>
    <path id="Caminho_4" data-name="Caminho 4" d="M518.3-153.3c-1,12.5-1,62.9.1,79.5l.8,12.8h9.5c9.6,0,13.3-1,13.3-3.5,0-1.1,1.3-.8,5.6,1.2C573.2-51.6,596-66.4,597.7-96c1.2-19.6-7.8-35.5-22.8-40.5-7.4-2.5-18.7-1.7-26.1,1.7-3.1,1.4-5.9,2.4-6.2,2-.3-.3-.6-7.2-.6-15.4V-163H519.2Zm43.4,37.4c3.4,1.3,8,5.5,9.9,9.1,2.1,4.1,1.8,11.7-.8,16.8-5.8,11.4-20.1,12.1-25.7,1.2-5.5-10.9-2.4-22.6,7.3-26.8C556.2-117.2,558.1-117.3,561.7-115.9Z" fill="#f2f4f7"/>
    <path id="Caminho_5" data-name="Caminho 5" d="M755-110v48h22V-83.3c0-21.2.8-34.7,1.9-34.7.8.1,13.5,16.2,30.2,38.2L822.5-62H843v-96H820v26.4c0,15.8-.4,26.7-1,27.1-1,.6-9.5-9.8-28.9-35.8L776.8-158H755Z" fill="#f2f4f7"/>
    <path id="Caminho_6" data-name="Caminho 6" d="M950-146.3c0,4.3-.4,8.4-.9,9.1-.5.8-2.4,1.7-4.2,2.1-3,.6-3.4,1.1-4.2,4.9a29.548,29.548,0,0,0,0,8.4c.8,4.2,1,4.3,5.1,4.6l4.2.3v17.8c0,25.5,1.4,31.1,8.9,35.4,6.5,3.9,22,3.4,26.9-.8,2.4-2.1,2.7-3,2.7-9.2v-6.8l-7.6.3-7.6.2-.5-17.7c-.3-9.8-.4-18.1-.1-18.6.2-.4,4-.7,8.4-.7H989v-17.9l-8.2-.3-8.3-.3-.3-9.3-.3-9.2H950Z" fill="#f2f4f7"/>
    <path id="Caminho_7" data-name="Caminho 7" d="M736.5-139c-6.1,2.1-13.1,5.6-14,7-1.4,2.2-2.6.9-2-2l.7-3H695v76h24.8l.4-18.8c.3-16.6.5-19.1,2.4-22.7,2.3-4.4,7-7.6,15.2-10.2l5.2-1.7v-12.7c0-7-.3-13-.7-13.2C741.8-140.5,739.2-140,736.5-139Z" fill="#f2f4f7"/>
    <path id="Caminho_8" data-name="Caminho 8" d="M636.1-137.5c-12.4,3.5-22.2,11.8-26.3,22.5-6.2,16.3-1.2,38.2,11,47.6,11.8,9,32.3,10.9,45.7,4.2,4.7-2.4,13.5-8.7,13.5-9.6a73.509,73.509,0,0,0-6.3-7.4L667.5-87l-10.3,4.1c-12,4.7-14.3,4.5-20.7-1.9l-3.7-3.7,25.1-.3L683-89v-5.8c0-12.8-5.6-26.8-13.7-34.3A35.828,35.828,0,0,0,636.1-137.5Zm17.2,22.6c1.6,2.1,4.7,6.8,4.7,7.3,0,.3-5.8.6-13,.6-7.1,0-13-.4-13-.9a16.623,16.623,0,0,1,2.3-4.2A7.5,7.5,0,0,1,640-116C643.5-116.5,652.7-115.8,653.3-114.9Z" fill="#f2f4f7"/>
    <path id="Caminho_9" data-name="Caminho 9" d="M431.8-136.3c-2.9.8-2.7,2.7,1.8,14.4,11.3,29.2,20.3,53.7,20.9,57.1s.5,3.8-1.6,4.2a36.408,36.408,0,0,1-6.1.3c-2,0-4.3.5-5.2,1.2-2.3,1.9-7.9,14-7.2,15.6.8,2.2,11.4,4.9,19.6,4.9,12.1.1,18.4-4.3,24.1-16.9,4.5-9.9,23.2-57.3,27.1-68.8,2.7-7.8,3-9.9,2-10.9-.8-.8-5.1-1.4-12.5-1.6l-11.3-.4-6.9,21.6c-6.1,19.1-7.1,21.4-8.1,19.4-.6-1.3-4-11-7.5-21.6L454.5-137l-10.5.1C438.2-136.8,432.8-136.6,431.8-136.3Z" fill="#f2f4f7"/>
    <path id="Caminho_10" data-name="Caminho 10" d="M882.2-134.9c-6.9,2.7-16,11.2-19.4,18.1-9.8,19.9-2.1,43.7,17,52.6,5.2,2.5,6.7,2.7,18.2,2.7,12.3,0,12.6-.1,18.6-3.3,3.4-1.9,7.4-4.6,8.8-6.1l2.6-2.7-5.9-5.8-5.9-5.8-6.8,3.3c-7.9,3.9-16.3,4.5-20.9,1.5-2.8-1.8-6.8-7.6-5.9-8.6.3-.3,11.4-.7,24.7-1l24.1-.5-.2-5.5c-.7-14.2-3.9-24-10-30.3C912-135.8,894.6-139.6,882.2-134.9Zm21,18.5c3,1.6,6.8,6.4,6.8,8.8,0,1.4-2,1.6-15.5,1.6-11.9,0-15.5-.3-15.5-1.3,0-2.1,6.2-8.9,9.4-10.3C891.9-119.1,898.9-118.5,903.2-116.4Z" fill="#f2f4f7"/>
    <path id="Caminho_11" data-name="Caminho 11" d="M126-66V-1h37V-131H126Z" fill="#f2f4f7"/>
    <path id="Caminho_12" data-name="Caminho 12" d="M64-55V-1H99V-109H64Z" fill="#f2f4f7"/>
    <path id="Caminho_13" data-name="Caminho 13" d="M0-43.5V-1H35V-86H0Z" fill="#f2f4f7"/>
    <path id="Caminho_14" data-name="Caminho 14" d="M644-34.8c0,7.7-.1,8-1.7,6.5-4.8-4.2-12.8-2.4-15.6,3.6-2.4,5-2.3,15.3.2,19.3C630.4.3,638,1.1,643.2-3.7c1.7-1.5,1.8-1.4,1.8.5,0,1.5.6,2.2,2,2.2,1.9,0,2-.7,2-21V-43h-2.5C644-43,644-42.9,644-34.8Zm-2.3,11c1.9,1.8,2.3,3.2,2.3,8.4,0,5.6-.3,6.5-2.6,8.3-3.5,2.8-7.9,2.7-9.8-.1-2.9-4.1-1.8-15.7,1.8-18C635.5-26.6,639.4-26,641.7-23.8Z" fill="#f2f4f7"/>
    <path id="Caminho_15" data-name="Caminho 15" d="M744-35.1v7.8l-4-1.9c-7.4-3.7-14,.8-15.4,10.7-.9,5.5,1,12.8,4,15.6,3.1,2.9,9.1,2.9,13.3,0,3.1-2.2,3.1-2.2,3.1-.2,0,1.4.6,2.1,2,2.1,1.9,0,2-.7,2-21V-43h-2.5C744-43,744-42.9,744-35.1Zm-2.6,11.2c2.3,1.8,2.6,2.7,2.6,8.4s-.3,6.6-2.6,8.4c-6.4,5-11.7,1.2-11.7-8.4S735-28.9,741.4-23.9Z" fill="#f2f4f7"/>
    <path id="Caminho_16" data-name="Caminho 16" d="M803.3-41.3c-.7.2-1.3,1.6-1.3,2.9,0,2,.5,2.4,3,2.4s3-.4,3-2.4c0-1.8-2.1-4.1-3.3-3.5A9.041,9.041,0,0,0,803.3-41.3Z" fill="#f2f4f7"/>
    <path id="Caminho_17" data-name="Caminho 17" d="M486.3-40.4c-1,.4-1.3,5.4-1.3,20V-1h2.5c2.4,0,2.5-.2,2.5-7.4v-7.4l5.5-.4c7-.6,10.6-3.1,12.4-8.7,1.1-3.6,1.1-4.8,0-7.8-2.1-5.3-5.3-7.2-13.4-7.8C490.7-40.7,486.9-40.7,486.3-40.4ZM501-34c2.5,2.5,2.6,8,.2,11-1.2,1.5-3.3,2.4-6.5,2.7l-4.7.6V-36h4.5C497.7-36,499.6-35.4,501-34Z" fill="#f2f4f7"/>
    <path id="Caminho_18" data-name="Caminho 18" d="M850.7-37.4c-.4.4-.7,2.2-.7,4.1,0,2.9-.3,3.3-2.5,3.3-3.3,0-3.5,3.7-.2,4.2,2.1.3,2.2.8,2.5,10.9.3,13,1.4,14.5,10,14,1.6-.1,2.2-.7,2.2-2.4,0-1.8-.5-2.2-3.2-2.2s-3.3-.4-4-3.3a40.536,40.536,0,0,1-.6-10l.3-6.7,3.8-.3c2.8-.2,3.7-.8,3.7-2.2s-.9-2-3.7-2.2c-3.5-.3-3.8-.6-4.3-3.7C853.5-37.3,852.1-38.7,850.7-37.4Z" fill="#f2f4f7"/>
    <path id="Caminho_19" data-name="Caminho 19" d="M984.7-37.4c-.4.4-.7,2.2-.7,4.1,0,2.9-.3,3.3-2.5,3.3-1.8,0-2.5.5-2.5,2s.7,2,2.5,2H984v10.4c0,8.5.3,10.8,1.8,12.6,3,3.7,12.1,2.5,10.9-1.4-.2-.6-1.9-1-3.8-1l-3.4-.1-.3-10.2-.3-10.2,3.8-.3c5.2-.4,5.3-3.2.1-3.6-3.5-.3-3.7-.5-4-4S986.4-39.1,984.7-37.4Z" fill="#f2f4f7"/>
    <path id="Caminho_20" data-name="Caminho 20" d="M526-30.3a12.4,12.4,0,0,0-3.1,2c-1.4,1.2-1.7,1.2-2.2-.2A3.247,3.247,0,0,0,518-30c-1.9,0-2,.6-2,14.5V-1h2.5c2.5,0,2.5,0,2.5-9.8,0-9.6.1-9.9,2.9-12.6,2.3-2.2,3.6-2.7,5.5-2.2,2.3.6,2.6.3,2.6-1.9,0-1.4-.4-2.5-.9-2.5a12.363,12.363,0,0,1-2.3-.4A4.5,4.5,0,0,0,526-30.3Z" fill="#f2f4f7"/>
    <path id="Caminho_21" data-name="Caminho 21" d="M544.5-30.3c-6.2,1.6-9.5,6.9-9.5,15.5,0,9.4,4.5,14.2,12.8,14.1,9.1-.1,13.2-5,13.2-15.7,0-5.5-.4-6.9-2.6-9.5a14.984,14.984,0,0,0-6.2-4.1C548.3-31,547.7-31.1,544.5-30.3Zm8.1,5.1c3.9,2.6,4.7,13.3,1.3,17.6C552.3-5.6,551-5,548-5c-5.4,0-8-3.4-8-10.5Q540-26,547.8-26A12.243,12.243,0,0,1,552.6-25.2Z" fill="#f2f4f7"/>
    <path id="Caminho_22" data-name="Caminho 22" d="M604-30.4c-4.3,1.6-6.4,3.2-8.1,6.6-3.2,6.3-2,17,2.4,20.6C601-.9,607,0,612.2-1.1c4.1-.9,4.8-1.4,4.8-3.5s-.3-2.3-1.9-1.4a22.147,22.147,0,0,1-7,1c-4.2,0-5.3-.4-7-2.6a9.358,9.358,0,0,1-2.1-4.5c0-1.6,1.1-1.9,9.1-2.1,7.1-.2,9.4-.7,10.2-1.9,1.4-2.3-1.2-9.8-4.3-12C611.3-30.1,606.4-31.2,604-30.4Zm7.7,5.7a10.127,10.127,0,0,1,1.8,3.9l.7,2.8h-7.6c-4.2,0-7.6-.4-7.6-1,0-2.1,2.4-5.9,4.4-6.9C605.8-27,609.9-26.5,611.7-24.7Z" fill="#f2f4f7"/>
    <path id="Caminho_23" data-name="Caminho 23" d="M665-29.7c-5.2,1.8-8,6.7-8,14.1,0,6.9,1.3,10,5.2,12.9C667.7,1.4,678.4-1,681.5-7c1.8-3.5,2-13.5.2-16.9C678.9-29.3,671.4-32,665-29.7Zm10.9,6.3c1.5,1.9,2.1,4.1,2.1,7.9C678-8.4,675.4-5,670-5s-8-3.4-8-10.5S664.6-26,670-26C673-26,674.3-25.4,675.9-23.4Z" fill="#f2f4f7"/>
    <path id="Caminho_24" data-name="Caminho 24" d="M698.1-28.4c-3,2.5-3.1,2.5-3.1.5,0-1.4-.6-2.1-2-2.1-1.9,0-2,.7-2,14.5V-1h5V-11c0-9.5.2-10.2,2.6-12.6,1.8-1.9,3.1-2.4,5-2,2,.5,2.4.3,2.4-1.8s-1.6-3.6-4-3.6C701.5-31,699.8-29.8,698.1-28.4Z" fill="#f2f4f7"/>
    <path id="Caminho_25" data-name="Caminho 25" d="M764.3-29.5c-5,2.1-7.3,6.8-7.3,14.7,0,5.7.4,7.1,2.6,9.7A14.689,14.689,0,0,0,765.9-1C771.7.5,780-1.5,780-4.5c0-1.1-1.4-1.3-6.9-.8-6.1.5-7.1.3-9-1.6a7.78,7.78,0,0,1-2.1-4.6c0-2.5.1-2.5,7.9-2.5,10.3,0,11.1-.4,11.1-4.9,0-5.3-3.1-9.8-7.7-11C768.6-31.3,768.2-31.2,764.3-29.5Zm9.1,4.6a6.457,6.457,0,0,1,2.6,4.5c0,2.3-.3,2.4-7,2.4-5.7,0-7-.3-7-1.6a7.732,7.732,0,0,1,4.3-6.4C769.6-27.3,770.5-27.2,773.4-24.9Z" fill="#f2f4f7"/>
    <path id="Caminho_26" data-name="Caminho 26" d="M827-29.9a17.543,17.543,0,0,0-4.2,2.6c-1.7,1.5-1.8,1.5-1.8-.5,0-1.5-.6-2.2-2-2.2-1.9,0-2,.7-2,14.5V-1h5V-11.3c0-9.5.2-10.5,2.3-12.5,3-2.9,7.1-2.8,9.1,0,1.2,1.7,1.6,4.8,1.6,12.5V-1h5V-11.6c0-12.4-1.4-16.7-6.2-18.3C830.2-31.2,830.3-31.2,827-29.9Z" fill="#f2f4f7"/>
    <path id="Caminho_27" data-name="Caminho 27" d="M874.3-29.5c-4.8,2.1-7.3,6.8-7.3,14,0,6.8,1.3,9.9,5.3,12.9C877,.9,890-.5,890-4.5c0-1.1-1.4-1.3-6.9-.8-6.1.5-7.1.3-9-1.6a7.78,7.78,0,0,1-2.1-4.6c0-2.5.1-2.5,7.9-2.5,10.3,0,11.1-.4,11.1-4.9,0-5.3-3.1-9.8-7.7-11C878.6-31.3,878.2-31.2,874.3-29.5Zm9.1,4.6a6.457,6.457,0,0,1,2.6,4.5c0,2.3-.3,2.4-7,2.4-5.7,0-7-.3-7-1.6a7.732,7.732,0,0,1,4.3-6.4C879.6-27.3,880.5-27.2,883.4-24.9Z" fill="#f2f4f7"/>
    <path id="Caminho_28" data-name="Caminho 28" d="M906.1-28.4c-3,2.5-3.1,2.5-3.1.5,0-1.4-.6-2.1-2-2.1-1.9,0-2,.7-2,14.5V-1h5V-11c0-9.5.2-10.2,2.6-12.6,1.8-1.9,3.1-2.4,5-2,2,.5,2.4.3,2.4-1.8s-1.6-3.6-4-3.6C909.5-31,907.8-29.8,906.1-28.4Z" fill="#f2f4f7"/>
    <path id="Caminho_29" data-name="Caminho 29" d="M928.8-29.1c-3,1.7-3.7,1.8-4.2.6A2.941,2.941,0,0,0,922-30c-1.9,0-2,.6-2,14.5V-1h5V-11c0-9.4.2-10.3,2.5-12.5,2.6-2.7,7.8-3.4,9.2-1.3.4.7,1,6.2,1.3,12.3.5,10.5.6,11,2.8,11.3S943-1,943-12.9c0-11-.2-12.2-2.2-14.5C937.6-31,933.4-31.6,928.8-29.1Z" fill="#f2f4f7"/>
    <path id="Caminho_30" data-name="Caminho 30" d="M959-29.7c-5.2,1.8-8,6.7-8,14.1,0,10.4,4.2,15.1,13.3,15C970.5-.7,974-2.3,974-5c0-1.7-.4-1.8-2.6-1a21.912,21.912,0,0,1-6.9,1c-5,0-8.5-2.8-8.5-6.7,0-2.1.4-2.2,9.3-2.5l9.2-.3.3-3.7c.4-5-2.2-9.6-6.3-11.4C964.5-31.3,963.6-31.3,959-29.7Zm7.3,3.8c2.8,1.5,3.7,2.8,3.7,5.6,0,2.2-.4,2.3-7,2.3-5.7,0-7-.3-7-1.6a7.732,7.732,0,0,1,4.3-6.4C963.3-27.2,963.8-27.2,966.3-25.9Z" fill="#f2f4f7"/>
    <path id="Caminho_31" data-name="Caminho 31" d="M565-29.3c0,.4,2.2,6.9,4.8,14.3,4.7,13.1,4.9,13.5,7.9,13.8,2.2.2,3.2-.2,3.7-1.5,2.6-6.6,8.6-24.8,8.6-26,0-.9-.8-1.3-2.2-1.1-1.8.2-2.8,2.1-5.7,11C580.2-12.8,578.3-8,578-8s-2.2-4.8-4.1-10.8c-3.2-9.8-3.7-10.7-6.2-11C566.2-30,565-29.8,565-29.3Z" fill="#f2f4f7"/>
    <path id="Caminho_32" data-name="Caminho 32" d="M803-15.5c0,14.6,0,14.6,2.3,14.3,2.2-.3,2.2-.5,2.2-14.3s0-14-2.2-14.3C803-30.1,803-30.1,803-15.5Z" fill="#f2f4f7"/>
  </g>
</svg>
