<?xml version="1.0" standalone="no"?>
<!DOCTYPE svg PUBLIC "-//W3C//DTD SVG 20010904//EN"
 "http://www.w3.org/TR/2001/REC-SVG-20010904/DTD/svg10.dtd">
<svg version="1.0" xmlns="http://www.w3.org/2000/svg"
 width="920.000000pt" height="920.000000pt" viewBox="0 0 920.000000 920.000000"
 preserveAspectRatio="xMidYMid meet">

<g transform="translate(0.000000,920.000000) scale(0.100000,-0.100000)"
fill="#000000" stroke="none">
<path d="M4413 8954 c-595 -92 -1087 -429 -1327 -909 -142 -283 -164 -452
-121 -945 7 -85 43 -372 51 -411 4 -23 2 -25 -29 -26 -73 -2 -107 -51 -128
-185 -12 -77 -9 -152 17 -448 24 -266 57 -389 129 -469 40 -44 92 -66 136 -57
24 5 29 2 33 -17 3 -12 16 -87 31 -167 59 -322 196 -637 351 -810 l49 -55 -3
-421 -3 -421 -187 -91 c-223 -108 -323 -153 -627 -282 -553 -235 -716 -291
-981 -335 -87 -14 -182 -33 -211 -41 -144 -42 -459 -190 -593 -279 -361 -242
-624 -601 -791 -1085 -127 -366 -204 -899 -154 -1067 21 -70 79 -133 157 -169
l63 -29 4325 0 4325 0 63 29 c78 36 136 99 157 169 19 66 19 227 0 385 -76
616 -292 1136 -617 1486 -194 210 -388 340 -718 484 -145 62 -248 95 -370 117
-212 38 -390 91 -649 195 -296 117 -829 349 -1053 457 l-138 66 0 421 0 421
41 45 c184 205 307 513 384 964 6 34 9 38 31 33 83 -15 164 53 208 176 35 96
41 134 66 403 23 235 23 400 0 476 -17 57 -55 97 -101 104 -21 4 -39 12 -39
18 0 6 11 97 24 201 55 433 59 706 13 905 -140 601 -573 1001 -1228 1134 -231
47 -413 57 -586 30z"/>
</g>
</svg>
